# xmcd
#
# Track frame offsets: 
#        150
#        18240
#        39365
#        56745
#        77995
#        102280
#        119210
#        137887
#        159957
#        184100
#        206477
#        230722
#
# Disc length: 3425 seconds
#
# Revision: 2
# Processed by: cddbd v1.5.2PL0 Copyright (c) Steve Scherf et al.
# Submitted via: ExactAudioCopy v0.99pb4
#
DISCID=a50d5f0c
DTITLE=Kenny Neal - One Step Closer
DYEAR=2001
DGENRE=Blues
TTITLE0=No More One More Change
TTITLE1=Remedy
TTITLE2=Lovers Will
TTITLE3=Walk Out In The Rain
TTITLE4=One Step Closer To The Blues
TTITLE5=Hidden In Plain Sight
TTITLE6=High On A Hilltop
TTITLE7=Back Door Tipper
TTITLE8=Congo Square
TTITLE9=You Care
TTITLE10=Whiskey Tears
TTITLE11=She Ain't Happy Unless She's Sad
EXTD=YEAR: 2001
EXTT0=
EXTT1=
EXTT2=
EXTT3=
EXTT4=
EXTT5=
EXTT6=
EXTT7=
EXTT8=
EXTT9=
EXTT10=
EXTT11=
PLAYORDER=
